<?xml version="1.0" encoding="UTF-8" standalone="no"?>
<svg
   width="50"
   height="50"
   fill="none"
   viewBox="0 0 50 50"
   version="1.1"
   id="svg176"
   sodipodi:docname="favicon.svg"
   inkscape:version="1.1.1 (3bf5ae0d25, 2021-09-20)"
   xmlns:inkscape="http://www.inkscape.org/namespaces/inkscape"
   xmlns:sodipodi="http://sodipodi.sourceforge.net/DTD/sodipodi-0.dtd"
   xmlns="http://www.w3.org/2000/svg"
   xmlns:svg="http://www.w3.org/2000/svg">
  <sodipodi:namedview
     id="namedview178"
     pagecolor="#ffffff"
     bordercolor="#666666"
     borderopacity="1.0"
     inkscape:pageshadow="2"
     inkscape:pageopacity="0.0"
     inkscape:pagecheckerboard="0"
     showgrid="false"
     inkscape:zoom="15.630435"
     inkscape:cx="29.81363"
     inkscape:cy="29.621696"
     inkscape:window-width="3840"
     inkscape:window-height="2066"
     inkscape:window-x="2869"
     inkscape:window-y="-11"
     inkscape:window-maximized="1"
     inkscape:current-layer="svg176" />
  <mask
     id="a"
     width="48"
     height="46"
     x="0"
     y="0"
     maskUnits="userSpaceOnUse">
    <path
       fill="#000"
       d="m 25.842,44.938 c -0.664,0.844 -2.021,0.375 -2.021,-0.698 V 33.937 A 2.26,2.26 0 0 0 21.559,31.675 H 10.183 c -0.92,0 -1.456,-1.04 -0.92,-1.788 l 7.48,-10.471 c 1.07,-1.498 0,-3.579 -1.842,-3.579 H 1.133 c -0.92,0 -1.456,-1.04 -0.92,-1.787 L 9.91,0.473 c 0.214,-0.297 0.556,-0.474 0.92,-0.474 h 28.894 c 0.92,0 1.456,1.04 0.92,1.788 l -7.48,10.471 c -1.07,1.498 0,3.578 1.842,3.578 h 11.377 c 0.943,0 1.473,1.088 0.89,1.832 L 25.843,44.94 Z"
       style="fill:#000000;fill-opacity:1"
       id="path4" />
  </mask>
  <defs
     id="defs174">
    <filter
       id="b"
       width="60.044998"
       height="41.653999"
       x="-19.77"
       y="16.149"
       color-interpolation-filters="sRGB"
       filterUnits="userSpaceOnUse">
      <feFlood
         flood-opacity="0"
         result="BackgroundImageFix"
         id="feFlood69" />
      <feBlend
         in="SourceGraphic"
         in2="BackgroundImageFix"
         result="shape"
         id="feBlend71"
         mode="normal" />
      <feGaussianBlur
         result="effect1_foregroundBlur_2002_17158"
         stdDeviation="7.659"
         id="feGaussianBlur73" />
    </filter>
    <filter
       id="c"
       width="90.339996"
       height="51.437"
       x="-54.612999"
       y="-7.533"
       color-interpolation-filters="sRGB"
       filterUnits="userSpaceOnUse">
      <feFlood
         flood-opacity="0"
         result="BackgroundImageFix"
         id="feFlood76" />
      <feBlend
         in="SourceGraphic"
         in2="BackgroundImageFix"
         result="shape"
         id="feBlend78"
         mode="normal" />
      <feGaussianBlur
         result="effect1_foregroundBlur_2002_17158"
         stdDeviation="7.659"
         id="feGaussianBlur80" />
    </filter>
    <filter
       id="d"
       width="79.355003"
       height="29.4"
       x="-49.639999"
       y="2.03"
       color-interpolation-filters="sRGB"
       filterUnits="userSpaceOnUse">
      <feFlood
         flood-opacity="0"
         result="BackgroundImageFix"
         id="feFlood83" />
      <feBlend
         in="SourceGraphic"
         in2="BackgroundImageFix"
         result="shape"
         id="feBlend85"
         mode="normal" />
      <feGaussianBlur
         result="effect1_foregroundBlur_2002_17158"
         stdDeviation="4.596"
         id="feGaussianBlur87" />
    </filter>
    <filter
       id="e"
       width="79.579002"
       height="29.4"
       x="-45.044998"
       y="20.028999"
       color-interpolation-filters="sRGB"
       filterUnits="userSpaceOnUse">
      <feFlood
         flood-opacity="0"
         result="BackgroundImageFix"
         id="feFlood90" />
      <feBlend
         in="SourceGraphic"
         in2="BackgroundImageFix"
         result="shape"
         id="feBlend92"
         mode="normal" />
      <feGaussianBlur
         result="effect1_foregroundBlur_2002_17158"
         stdDeviation="4.596"
         id="feGaussianBlur94" />
    </filter>
    <filter
       id="f"
       width="79.579002"
       height="29.4"
       x="-43.513"
       y="21.177999"
       color-interpolation-filters="sRGB"
       filterUnits="userSpaceOnUse">
      <feFlood
         flood-opacity="0"
         result="BackgroundImageFix"
         id="feFlood97" />
      <feBlend
         in="SourceGraphic"
         in2="BackgroundImageFix"
         result="shape"
         id="feBlend99"
         mode="normal" />
      <feGaussianBlur
         result="effect1_foregroundBlur_2002_17158"
         stdDeviation="4.596"
         id="feGaussianBlur101" />
    </filter>
    <filter
       id="g"
       width="74.749001"
       height="58.852001"
       x="15.756"
       y="-17.900999"
       color-interpolation-filters="sRGB"
       filterUnits="userSpaceOnUse">
      <feFlood
         flood-opacity="0"
         result="BackgroundImageFix"
         id="feFlood104" />
      <feBlend
         in="SourceGraphic"
         in2="BackgroundImageFix"
         result="shape"
         id="feBlend106"
         mode="normal" />
      <feGaussianBlur
         result="effect1_foregroundBlur_2002_17158"
         stdDeviation="7.659"
         id="feGaussianBlur108" />
    </filter>
    <filter
       id="h"
       width="61.376999"
       height="25.362"
       x="23.548"
       y="2.2839999"
       color-interpolation-filters="sRGB"
       filterUnits="userSpaceOnUse">
      <feFlood
         flood-opacity="0"
         result="BackgroundImageFix"
         id="feFlood111" />
      <feBlend
         in="SourceGraphic"
         in2="BackgroundImageFix"
         result="shape"
         id="feBlend113"
         mode="normal" />
      <feGaussianBlur
         result="effect1_foregroundBlur_2002_17158"
         stdDeviation="4.596"
         id="feGaussianBlur115" />
    </filter>
    <filter
       id="i"
       width="61.376999"
       height="25.362"
       x="23.548"
       y="2.2839999"
       color-interpolation-filters="sRGB"
       filterUnits="userSpaceOnUse">
      <feFlood
         flood-opacity="0"
         result="BackgroundImageFix"
         id="feFlood118" />
      <feBlend
         in="SourceGraphic"
         in2="BackgroundImageFix"
         result="shape"
         id="feBlend120"
         mode="normal" />
      <feGaussianBlur
         result="effect1_foregroundBlur_2002_17158"
         stdDeviation="4.596"
         id="feGaussianBlur122" />
    </filter>
    <filter
       id="j"
       width="56.044998"
       height="63.648998"
       x="-27.636"
       y="-22.853001"
       color-interpolation-filters="sRGB"
       filterUnits="userSpaceOnUse">
      <feFlood
         flood-opacity="0"
         result="BackgroundImageFix"
         id="feFlood125" />
      <feBlend
         in="SourceGraphic"
         in2="BackgroundImageFix"
         result="shape"
         id="feBlend127"
         mode="normal" />
      <feGaussianBlur
         result="effect1_foregroundBlur_2002_17158"
         stdDeviation="4.596"
         id="feGaussianBlur129" />
    </filter>
    <filter
       id="k"
       width="54.813999"
       height="64.646004"
       x="20.115999"
       y="-38.415001"
       color-interpolation-filters="sRGB"
       filterUnits="userSpaceOnUse">
      <feFlood
         flood-opacity="0"
         result="BackgroundImageFix"
         id="feFlood132" />
      <feBlend
         in="SourceGraphic"
         in2="BackgroundImageFix"
         result="shape"
         id="feBlend134"
         mode="normal" />
      <feGaussianBlur
         result="effect1_foregroundBlur_2002_17158"
         stdDeviation="4.596"
         id="feGaussianBlur136" />
    </filter>
    <filter
       id="l"
       width="33.541"
       height="35.313"
       x="24.641001"
       y="-11.323"
       color-interpolation-filters="sRGB"
       filterUnits="userSpaceOnUse">
      <feFlood
         flood-opacity="0"
         result="BackgroundImageFix"
         id="feFlood139" />
      <feBlend
         in="SourceGraphic"
         in2="BackgroundImageFix"
         result="shape"
         id="feBlend141"
         mode="normal" />
      <feGaussianBlur
         result="effect1_foregroundBlur_2002_17158"
         stdDeviation="4.596"
         id="feGaussianBlur143" />
    </filter>
    <filter
       id="m"
       width="54.813999"
       height="64.646004"
       x="-29.285999"
       y="6.0089998"
       color-interpolation-filters="sRGB"
       filterUnits="userSpaceOnUse">
      <feFlood
         flood-opacity="0"
         result="BackgroundImageFix"
         id="feFlood146" />
      <feBlend
         in="SourceGraphic"
         in2="BackgroundImageFix"
         result="shape"
         id="feBlend148"
         mode="normal" />
      <feGaussianBlur
         result="effect1_foregroundBlur_2002_17158"
         stdDeviation="4.596"
         id="feGaussianBlur150" />
    </filter>
    <filter
       id="n"
       width="54.813999"
       height="64.646004"
       x="-29.285999"
       y="6.0089998"
       color-interpolation-filters="sRGB"
       filterUnits="userSpaceOnUse">
      <feFlood
         flood-opacity="0"
         result="BackgroundImageFix"
         id="feFlood153" />
      <feBlend
         in="SourceGraphic"
         in2="BackgroundImageFix"
         result="shape"
         id="feBlend155"
         mode="normal" />
      <feGaussianBlur
         result="effect1_foregroundBlur_2002_17158"
         stdDeviation="4.596"
         id="feGaussianBlur157" />
    </filter>
    <filter
       id="o"
       width="54.813999"
       height="64.646004"
       x="8.2440004"
       y="-2.4159999"
       color-interpolation-filters="sRGB"
       filterUnits="userSpaceOnUse">
      <feFlood
         flood-opacity="0"
         result="BackgroundImageFix"
         id="feFlood160" />
      <feBlend
         in="SourceGraphic"
         in2="BackgroundImageFix"
         result="shape"
         id="feBlend162"
         mode="normal" />
      <feGaussianBlur
         result="effect1_foregroundBlur_2002_17158"
         stdDeviation="4.596"
         id="feGaussianBlur164" />
    </filter>
    <filter
       id="p"
       width="39.409"
       height="43.623001"
       x="18.712999"
       y="10.588"
       color-interpolation-filters="sRGB"
       filterUnits="userSpaceOnUse">
      <feFlood
         flood-opacity="0"
         result="BackgroundImageFix"
         id="feFlood167" />
      <feBlend
         in="SourceGraphic"
         in2="BackgroundImageFix"
         result="shape"
         id="feBlend169"
         mode="normal" />
      <feGaussianBlur
         result="effect1_foregroundBlur_2002_17158"
         stdDeviation="4.596"
         id="feGaussianBlur171" />
    </filter>
  </defs>
  <rect
     style="fill:#dfe2dd;stroke:none;stroke-width:0.516773;stroke-linecap:round;stroke-linejoin:round;stroke-miterlimit:5;paint-order:markers stroke fill;fill-opacity:1"
     id="rect1177"
     width="49.483227"
     height="49.483227"
     x="0.25838649"
     y="0.25838649" />
  <path
     style="fill:#bddaf0;stroke-width:0.0319889;stroke-linecap:round;stroke-linejoin:round;stroke-miterlimit:5;paint-order:markers stroke fill"
     d="m 48.200253,24.672944 c -2.412104,-1.193763 -4.007219,-2.115473 -8.246151,-4.764895 -4.365752,-2.728686 -5.749364,-3.55031 -7.64534,-4.539996 -4.809451,-2.510495 -9.036617,-3.603144 -13.467316,-3.481065 -3.641186,0.100326 -7.05182,0.922167 -11.0681499,2.66703 -0.8716449,0.378679 -2.9747994,1.420804 -3.8453252,1.905381 -1.2269643,0.682986 -2.8930105,1.438467 -3.49612111,1.58534 l -0.17593881,0.04285 V 9.1877424 0.28789986 H 15.034223 29.812536 L 30.564821,0.8532158 C 35.9283,4.8836796 42.574485,8.1193646 49.054937,9.8550981 l 0.655772,0.1756429 v 7.668217 c 0,4.21752 -0.02423,7.668218 -0.05385,7.668218 -0.02962,0 -0.685091,-0.312404 -1.456606,-0.694232 z"
     id="path963" />
  <path
     style="fill:#a8dbd3;stroke-width:0.0319889;stroke-linecap:round;stroke-linejoin:round;stroke-miterlimit:5;paint-order:markers stroke fill;fill-opacity:1"
     d="m 47.94184,24.53998 c -2.479299,-1.239987 -3.619216,-1.904182 -8.627515,-5.02699 -1.759388,-1.097025 -3.616342,-2.240448 -4.126565,-2.54094 -5.052133,-2.975418 -8.831147,-4.413536 -13.019471,-4.954609 -1.223461,-0.158054 -4.219753,-0.159033 -5.470097,-0.0018 -4.14325,0.521061 -7.871089,1.821779 -12.8229045,4.474173 -0.6660189,0.356747 -1.5297184,0.791069 -1.9193324,0.965161 -0.6550849,0.292717 -1.5230474,0.618729 -1.64727223,0.618729 -0.0290245,0 -0.0527719,-4.001808 -0.0527719,-8.8929065 V 0.28789986 H 15.037857 29.819803 L 30.4405,0.75717416 C 35.862906,4.8567593 42.649043,8.1625099 49.182892,9.8872104 l 0.527817,0.1393246 v 7.670321 c 0,4.49122 -0.02382,7.67032 -0.05746,7.67032 -0.0316,0 -0.801737,-0.372238 -1.711405,-0.827196 z"
     id="path1002" />
  <path
     style="fill:#44c4bf;fill-opacity:1;stroke-width:0.0319889;stroke-linecap:round;stroke-linejoin:round;stroke-miterlimit:5;paint-order:markers stroke fill"
     d="m 0.29856282,49.700045 c -0.0234585,-0.02346 -0.0426518,-2.873404 -0.0426518,-6.333213 V 37.07627 L 0.89286056,36.756634 C 4.442614,34.975285 8.6817501,33.794256 12.621855,33.488921 c 1.394926,-0.108099 4.134269,-0.04494 5.323903,0.122751 2.560289,0.360897 4.537436,0.957666 6.589993,1.989079 1.808373,0.908711 3.084936,1.829312 4.478263,3.229524 2.257383,2.268539 3.807174,5.121565 4.693989,8.641213 0.148291,0.588544 0.456113,2.107306 0.456113,2.25041 0,0.04147 -33.82405608,0.01964 -33.86555318,-0.02185 z"
     id="path1337" />
  <path
     style="fill:#82dbd6;fill-opacity:1;stroke-width:0.0319889;stroke-linecap:round;stroke-linejoin:round;stroke-miterlimit:5;paint-order:markers stroke fill"
     d="m 35.222622,49.598748 c -0.01736,-0.07917 -0.09134,-0.48943 -0.164413,-0.911683 C 34.197882,43.715601 31.778869,39.473429 28.182838,36.629869 23.28356,32.755767 16.235484,31.439577 8.6365888,32.979716 6.0005196,33.513992 3.5029276,34.352431 0.75173852,35.626652 L 0.25591098,35.856296 V 27.54602 19.235745 L 0.68776077,19.093823 C 1.9148192,18.690566 2.9195562,18.231419 4.8533228,17.190235 c 5.3906722,-2.90246 9.9784252,-4.238661 14.5639232,-4.2418 3.953902,-0.0027 7.405966,0.89095 11.675939,3.02262 2.261216,1.128852 3.39524,1.791119 8.081869,4.719787 5.011766,3.131846 7.474206,4.522475 10.007838,5.651788 l 0.527817,0.235263 v 11.582402 11.582403 h -7.228267 -7.228266 z"
     id="path1376" />
  <path
     style="fill:none;stroke:#000000;stroke-width:1px;stroke-linecap:butt;stroke-linejoin:miter;stroke-opacity:1"
     d="M -6.7176633,18.553546 C -2.965895,19.960036 0.58113166,18.940734 4.030598,17.01808 36.8104,-1.2526288 40.712664,41.596225 81.635604,25.463143"
     id="path918" />
  <path
     style="fill:none;stroke:#000000;stroke-width:1px;stroke-linecap:butt;stroke-linejoin:miter;stroke-opacity:1"
     d="M 34.867872,57.32406 C 37.573612,25.289985 -0.17626656,27.269107 -13.05146,48.623087"
     id="path920" />
  <path
     style="fill:none;stroke:#000000;stroke-width:1px;stroke-linecap:butt;stroke-linejoin:miter;stroke-opacity:1"
     d="M 22.904033,-7.3574408 C 30.422738,2.5167122 44.790774,9.7687889 57.132127,10.748261"
     id="path924" />
</svg>
